<mxfile host="app.diagrams.net" agent="Mozilla/5.0 (Windows NT 10.0; Win64; x64) AppleWebKit/537.36 (KHTML, like Gecko) Chrome/128.0.0.0 Safari/537.36" version="24.7.13">
  <diagram name="第 1 页" id="GiNAaCklsX_8uzecNkrt">
    <mxGraphModel dx="1613" dy="132" grid="0" gridSize="10" guides="1" tooltips="1" connect="1" arrows="1" fold="1" page="1" pageScale="1" pageWidth="827" pageHeight="1169" math="1" shadow="0">
      <root>
        <mxCell id="0" />
        <mxCell id="1" parent="0" />
        <mxCell id="vYAjjvCld0Y-YH37jlVp-1" value="" style="rounded=0;whiteSpace=wrap;html=1;dashed=1;dashPattern=8 8;fillColor=#f5f5f5;fontColor=#333333;strokeColor=#666666;" vertex="1" parent="1">
          <mxGeometry x="2210" y="1271" width="140" height="1015" as="geometry" />
        </mxCell>
        <mxCell id="vYAjjvCld0Y-YH37jlVp-2" value="" style="rounded=0;whiteSpace=wrap;html=1;dashed=1;dashPattern=8 8;fillColor=#f5f5f5;fontColor=#333333;strokeColor=#666666;" vertex="1" parent="1">
          <mxGeometry x="2047" y="1270" width="153" height="1017" as="geometry" />
        </mxCell>
        <mxCell id="vYAjjvCld0Y-YH37jlVp-3" value="" style="rounded=0;whiteSpace=wrap;html=1;dashed=1;dashPattern=8 8;fillColor=#f5f5f5;fontColor=#333333;strokeColor=#666666;" vertex="1" parent="1">
          <mxGeometry x="1900" y="1270" width="140" height="1016.5" as="geometry" />
        </mxCell>
        <mxCell id="vYAjjvCld0Y-YH37jlVp-4" value="" style="rounded=0;whiteSpace=wrap;html=1;dashed=1;dashPattern=8 8;strokeColor=#82b366;fillColor=#E6E6E6;" vertex="1" parent="1">
          <mxGeometry x="1721.5" y="1270" width="168.5" height="1016.5" as="geometry" />
        </mxCell>
        <mxCell id="vYAjjvCld0Y-YH37jlVp-5" value="" style="rounded=0;whiteSpace=wrap;html=1;dashed=1;dashPattern=8 8;fillColor=#f5f5f5;fontColor=#333333;strokeColor=#666666;" vertex="1" parent="1">
          <mxGeometry x="1560" y="1270" width="150" height="1015" as="geometry" />
        </mxCell>
        <mxCell id="vYAjjvCld0Y-YH37jlVp-6" value="" style="rounded=0;whiteSpace=wrap;html=1;dashed=1;dashPattern=8 8;strokeColor=#82b366;fillColor=#E6E6E6;" vertex="1" parent="1">
          <mxGeometry x="1370" y="1269" width="184" height="1016" as="geometry" />
        </mxCell>
        <mxCell id="vYAjjvCld0Y-YH37jlVp-7" value="" style="rounded=0;whiteSpace=wrap;html=1;dashed=1;dashPattern=8 8;fillColor=#f5f5f5;fontColor=#333333;strokeColor=#666666;" vertex="1" parent="1">
          <mxGeometry x="1210" y="1270" width="150" height="1015" as="geometry" />
        </mxCell>
        <mxCell id="vYAjjvCld0Y-YH37jlVp-8" value="" style="whiteSpace=wrap;html=1;aspect=fixed;fillColor=#e1d5e7;strokeColor=#9673a6;fontSize=16;" vertex="1" parent="1">
          <mxGeometry x="1278" y="1289" width="50" height="50" as="geometry" />
        </mxCell>
        <mxCell id="vYAjjvCld0Y-YH37jlVp-9" style="edgeStyle=orthogonalEdgeStyle;rounded=0;orthogonalLoop=1;jettySize=auto;html=1;entryX=0.5;entryY=0;entryDx=0;entryDy=0;entryPerimeter=0;" edge="1" parent="1" source="vYAjjvCld0Y-YH37jlVp-10" target="vYAjjvCld0Y-YH37jlVp-99">
          <mxGeometry relative="1" as="geometry">
            <mxPoint x="2005" y="1342" as="targetPoint" />
          </mxGeometry>
        </mxCell>
        <mxCell id="vYAjjvCld0Y-YH37jlVp-10" value="(1,4)" style="whiteSpace=wrap;html=1;aspect=fixed;fillColor=#e1d5e7;strokeColor=#9673a6;fontSize=16;" vertex="1" parent="1">
          <mxGeometry x="1910" y="1286" width="45" height="45" as="geometry" />
        </mxCell>
        <mxCell id="vYAjjvCld0Y-YH37jlVp-12" value="(1,7)" style="whiteSpace=wrap;html=1;aspect=fixed;fillColor=#e1d5e7;strokeColor=#9673a6;fontSize=16;" vertex="1" parent="1">
          <mxGeometry x="1230" y="1446.5" width="45" height="45" as="geometry" />
        </mxCell>
        <mxCell id="vYAjjvCld0Y-YH37jlVp-13" value="(4,4)" style="whiteSpace=wrap;html=1;aspect=fixed;fillColor=#e1d5e7;strokeColor=#9673a6;fontSize=16;" vertex="1" parent="1">
          <mxGeometry x="1230" y="1551.5" width="45" height="45" as="geometry" />
        </mxCell>
        <mxCell id="vYAjjvCld0Y-YH37jlVp-14" value="(10,1)" style="whiteSpace=wrap;html=1;aspect=fixed;fillColor=#e1d5e7;strokeColor=#9673a6;fontSize=16;" vertex="1" parent="1">
          <mxGeometry x="1575" y="1555.5" width="45" height="45" as="geometry" />
        </mxCell>
        <mxCell id="vYAjjvCld0Y-YH37jlVp-15" value="(7,4)" style="whiteSpace=wrap;html=1;aspect=fixed;fillColor=#e1d5e7;strokeColor=#9673a6;fontSize=16;" vertex="1" parent="1">
          <mxGeometry x="1385" y="1658" width="45" height="45" as="geometry" />
        </mxCell>
        <mxCell id="vYAjjvCld0Y-YH37jlVp-16" value="(10,4)" style="whiteSpace=wrap;html=1;aspect=fixed;fillColor=#e1d5e7;strokeColor=#9673a6;fontSize=16;" vertex="1" parent="1">
          <mxGeometry x="1385" y="1783" width="45" height="45" as="geometry" />
        </mxCell>
        <mxCell id="vYAjjvCld0Y-YH37jlVp-17" value="(7,7)" style="whiteSpace=wrap;html=1;aspect=fixed;fillColor=#e1d5e7;strokeColor=#9673a6;fontSize=16;" vertex="1" parent="1">
          <mxGeometry x="1385" y="1888" width="45" height="45" as="geometry" />
        </mxCell>
        <mxCell id="vYAjjvCld0Y-YH37jlVp-18" value="(10,7)" style="whiteSpace=wrap;html=1;aspect=fixed;fillColor=#e1d5e7;strokeColor=#9673a6;fontSize=16;" vertex="1" parent="1">
          <mxGeometry x="1736" y="1965.5" width="45" height="45" as="geometry" />
        </mxCell>
        <mxCell id="vYAjjvCld0Y-YH37jlVp-19" value="&lt;font style=&quot;font-size: 14px;&quot;&gt;(10,10)&lt;/font&gt;" style="whiteSpace=wrap;html=1;aspect=fixed;fillColor=#e1d5e7;strokeColor=#9673a6;fontSize=16;" vertex="1" parent="1">
          <mxGeometry x="1736" y="2146.5" width="45" height="45" as="geometry" />
        </mxCell>
        <mxCell id="vYAjjvCld0Y-YH37jlVp-20" value="$$Q_{(1,4)}$$" style="whiteSpace=wrap;html=1;aspect=fixed;fillColor=#ffe6cc;strokeColor=#d79b00;fontSize=16;" vertex="1" parent="1">
          <mxGeometry x="1230" y="1958" width="50" height="50" as="geometry" />
        </mxCell>
        <mxCell id="vYAjjvCld0Y-YH37jlVp-21" value="$$R_{(1,4)}$$" style="whiteSpace=wrap;html=1;aspect=fixed;fillColor=#f8cecc;strokeColor=#b85450;fontSize=16;" vertex="1" parent="1">
          <mxGeometry x="1230" y="2075.5" width="50" height="50" as="geometry" />
        </mxCell>
        <mxCell id="vYAjjvCld0Y-YH37jlVp-22" value="$$\Theta$$" style="text;html=1;align=center;verticalAlign=middle;resizable=0;points=[];autosize=1;strokeColor=none;fillColor=none;fontSize=16;" vertex="1" parent="1">
          <mxGeometry x="1253" y="1301.5" width="100" height="30" as="geometry" />
        </mxCell>
        <mxCell id="vYAjjvCld0Y-YH37jlVp-23" value="&lt;font style=&quot;font-size: 16px;&quot;&gt;$$\mathbb{A}_1$$&lt;/font&gt;" style="whiteSpace=wrap;html=1;aspect=fixed;fontSize=16;fillColor=#bac8d3;strokeColor=#23445d;" vertex="1" parent="1">
          <mxGeometry x="1385" y="1499" width="45" height="45" as="geometry" />
        </mxCell>
        <mxCell id="vYAjjvCld0Y-YH37jlVp-24" value="" style="verticalLabelPosition=bottom;verticalAlign=top;html=1;shape=mxgraph.flowchart.summing_function;fontSize=16;fillColor=#f5f5f5;fontColor=#333333;strokeColor=#666666;" vertex="1" parent="1">
          <mxGeometry x="1310" y="2025.5" width="40" height="40" as="geometry" />
        </mxCell>
        <mxCell id="vYAjjvCld0Y-YH37jlVp-28" value="$$\Delta t$$" style="whiteSpace=wrap;html=1;aspect=fixed;fillColor=#fff2cc;strokeColor=#d6b656;fontSize=14;" vertex="1" parent="1">
          <mxGeometry x="1822.5" y="1377" width="45" height="45" as="geometry" />
        </mxCell>
        <mxCell id="vYAjjvCld0Y-YH37jlVp-29" value="$$\frac{1}{2}\Delta t^2$$" style="whiteSpace=wrap;html=1;aspect=fixed;fillColor=#fff2cc;strokeColor=#d6b656;fontSize=14;" vertex="1" parent="1">
          <mxGeometry x="1822.5" y="1527" width="45" height="45" as="geometry" />
        </mxCell>
        <mxCell id="vYAjjvCld0Y-YH37jlVp-31" value="$$\frac{1}{6}\Delta t^3$$" style="whiteSpace=wrap;html=1;aspect=fixed;fillColor=#fff2cc;strokeColor=#d6b656;fontSize=14;" vertex="1" parent="1">
          <mxGeometry x="1822.5" y="1745.5" width="45" height="45" as="geometry" />
        </mxCell>
        <mxCell id="vYAjjvCld0Y-YH37jlVp-32" value="&lt;font style=&quot;font-size: 14px;&quot;&gt;$$\frac{5}{12}\Delta t^4$$&lt;/font&gt;" style="whiteSpace=wrap;html=1;aspect=fixed;fillColor=#fff2cc;strokeColor=#d6b656;fontSize=13;" vertex="1" parent="1">
          <mxGeometry x="1815.75" y="1885" width="53.5" height="53.5" as="geometry" />
        </mxCell>
        <mxCell id="vYAjjvCld0Y-YH37jlVp-33" value="$$\frac{1}{12}\Delta t^5$$" style="whiteSpace=wrap;html=1;aspect=fixed;fillColor=#fff2cc;strokeColor=#d6b656;fontSize=14;" vertex="1" parent="1">
          <mxGeometry x="1820.5" y="2056" width="45" height="45" as="geometry" />
        </mxCell>
        <mxCell id="vYAjjvCld0Y-YH37jlVp-36" style="edgeStyle=orthogonalEdgeStyle;rounded=0;orthogonalLoop=1;jettySize=auto;html=1;entryX=0;entryY=0.5;entryDx=0;entryDy=0;fontSize=16;" edge="1" parent="1" source="vYAjjvCld0Y-YH37jlVp-37" target="vYAjjvCld0Y-YH37jlVp-57">
          <mxGeometry relative="1" as="geometry" />
        </mxCell>
        <mxCell id="vYAjjvCld0Y-YH37jlVp-37" value="" style="verticalLabelPosition=bottom;verticalAlign=top;html=1;shape=mxgraph.flowchart.or;fontSize=16;fillColor=#999999;strokeColor=#000000;" vertex="1" parent="1">
          <mxGeometry x="1490" y="1660.5" width="40" height="40" as="geometry" />
        </mxCell>
        <mxCell id="vYAjjvCld0Y-YH37jlVp-38" value="$$3$$" style="whiteSpace=wrap;html=1;aspect=fixed;fillColor=#ffe6cc;strokeColor=#d79b00;fontSize=16;" vertex="1" parent="1">
          <mxGeometry x="1495" y="1605.5" width="30" height="30" as="geometry" />
        </mxCell>
        <mxCell id="vYAjjvCld0Y-YH37jlVp-39" style="edgeStyle=orthogonalEdgeStyle;rounded=0;orthogonalLoop=1;jettySize=auto;html=1;entryX=0.5;entryY=0;entryDx=0;entryDy=0;entryPerimeter=0;fontSize=16;" edge="1" parent="1" source="vYAjjvCld0Y-YH37jlVp-38" target="vYAjjvCld0Y-YH37jlVp-37">
          <mxGeometry relative="1" as="geometry" />
        </mxCell>
        <mxCell id="vYAjjvCld0Y-YH37jlVp-40" style="edgeStyle=orthogonalEdgeStyle;rounded=0;orthogonalLoop=1;jettySize=auto;html=1;exitX=1;exitY=0.5;exitDx=0;exitDy=0;entryX=0;entryY=0.5;entryDx=0;entryDy=0;entryPerimeter=0;fontSize=16;" edge="1" parent="1" source="vYAjjvCld0Y-YH37jlVp-15" target="vYAjjvCld0Y-YH37jlVp-37">
          <mxGeometry relative="1" as="geometry" />
        </mxCell>
        <mxCell id="vYAjjvCld0Y-YH37jlVp-41" value="" style="verticalLabelPosition=bottom;verticalAlign=top;html=1;shape=mxgraph.flowchart.or;fontSize=16;fillColor=#999999;strokeColor=#000000;" vertex="1" parent="1">
          <mxGeometry x="1490" y="1890.5" width="40" height="40" as="geometry" />
        </mxCell>
        <mxCell id="vYAjjvCld0Y-YH37jlVp-42" value="$$3$$" style="whiteSpace=wrap;html=1;aspect=fixed;fillColor=#ffe6cc;strokeColor=#d79b00;fontSize=16;" vertex="1" parent="1">
          <mxGeometry x="1495" y="1965.5" width="30" height="30" as="geometry" />
        </mxCell>
        <mxCell id="vYAjjvCld0Y-YH37jlVp-43" style="edgeStyle=orthogonalEdgeStyle;rounded=0;orthogonalLoop=1;jettySize=auto;html=1;entryX=0.5;entryY=1;entryDx=0;entryDy=0;entryPerimeter=0;fontSize=16;" edge="1" parent="1" source="vYAjjvCld0Y-YH37jlVp-42" target="vYAjjvCld0Y-YH37jlVp-41">
          <mxGeometry relative="1" as="geometry" />
        </mxCell>
        <mxCell id="vYAjjvCld0Y-YH37jlVp-44" style="edgeStyle=orthogonalEdgeStyle;rounded=0;orthogonalLoop=1;jettySize=auto;html=1;exitX=1;exitY=0.5;exitDx=0;exitDy=0;entryX=0;entryY=0.5;entryDx=0;entryDy=0;entryPerimeter=0;fontSize=16;" edge="1" parent="1" source="vYAjjvCld0Y-YH37jlVp-17" target="vYAjjvCld0Y-YH37jlVp-41">
          <mxGeometry relative="1" as="geometry" />
        </mxCell>
        <mxCell id="vYAjjvCld0Y-YH37jlVp-45" value="" style="verticalLabelPosition=bottom;verticalAlign=top;html=1;shape=mxgraph.flowchart.or;fontSize=16;fillColor=#999999;strokeColor=#000000;" vertex="1" parent="1">
          <mxGeometry x="1490" y="1785.5" width="40" height="40" as="geometry" />
        </mxCell>
        <mxCell id="vYAjjvCld0Y-YH37jlVp-46" value="$$4$$" style="whiteSpace=wrap;html=1;aspect=fixed;fillColor=#ffe6cc;strokeColor=#d79b00;fontSize=16;" vertex="1" parent="1">
          <mxGeometry x="1495" y="1725" width="30" height="30" as="geometry" />
        </mxCell>
        <mxCell id="vYAjjvCld0Y-YH37jlVp-47" style="edgeStyle=orthogonalEdgeStyle;rounded=0;orthogonalLoop=1;jettySize=auto;html=1;entryX=0.5;entryY=0;entryDx=0;entryDy=0;entryPerimeter=0;fontSize=16;" edge="1" parent="1" source="vYAjjvCld0Y-YH37jlVp-46" target="vYAjjvCld0Y-YH37jlVp-45">
          <mxGeometry relative="1" as="geometry" />
        </mxCell>
        <mxCell id="vYAjjvCld0Y-YH37jlVp-48" style="edgeStyle=orthogonalEdgeStyle;rounded=0;orthogonalLoop=1;jettySize=auto;html=1;entryX=0;entryY=0.5;entryDx=0;entryDy=0;entryPerimeter=0;fontSize=16;" edge="1" parent="1" source="vYAjjvCld0Y-YH37jlVp-16" target="vYAjjvCld0Y-YH37jlVp-45">
          <mxGeometry relative="1" as="geometry" />
        </mxCell>
        <mxCell id="vYAjjvCld0Y-YH37jlVp-49" style="edgeStyle=orthogonalEdgeStyle;rounded=0;orthogonalLoop=1;jettySize=auto;html=1;entryX=0.5;entryY=0;entryDx=0;entryDy=0;entryPerimeter=0;fontSize=16;" edge="1" parent="1" source="vYAjjvCld0Y-YH37jlVp-20" target="vYAjjvCld0Y-YH37jlVp-24">
          <mxGeometry relative="1" as="geometry" />
        </mxCell>
        <mxCell id="vYAjjvCld0Y-YH37jlVp-50" style="edgeStyle=orthogonalEdgeStyle;rounded=0;orthogonalLoop=1;jettySize=auto;html=1;exitX=1;exitY=0.5;exitDx=0;exitDy=0;entryX=0.5;entryY=1;entryDx=0;entryDy=0;entryPerimeter=0;fontSize=16;" edge="1" parent="1" source="vYAjjvCld0Y-YH37jlVp-21" target="vYAjjvCld0Y-YH37jlVp-24">
          <mxGeometry relative="1" as="geometry" />
        </mxCell>
        <mxCell id="vYAjjvCld0Y-YH37jlVp-51" style="edgeStyle=orthogonalEdgeStyle;rounded=0;orthogonalLoop=1;jettySize=auto;html=1;entryX=0;entryY=0.5;entryDx=0;entryDy=0;fontSize=16;" edge="1" parent="1" source="vYAjjvCld0Y-YH37jlVp-52" target="vYAjjvCld0Y-YH37jlVp-23">
          <mxGeometry relative="1" as="geometry" />
        </mxCell>
        <mxCell id="vYAjjvCld0Y-YH37jlVp-52" value="" style="verticalLabelPosition=bottom;verticalAlign=top;html=1;shape=mxgraph.flowchart.summing_function;fontSize=16;fillColor=#f5f5f5;fontColor=#333333;strokeColor=#666666;" vertex="1" parent="1">
          <mxGeometry x="1305" y="1501.5" width="40" height="40" as="geometry" />
        </mxCell>
        <mxCell id="vYAjjvCld0Y-YH37jlVp-53" style="edgeStyle=orthogonalEdgeStyle;rounded=0;orthogonalLoop=1;jettySize=auto;html=1;entryX=0.5;entryY=0;entryDx=0;entryDy=0;entryPerimeter=0;fontSize=16;exitX=1;exitY=0.5;exitDx=0;exitDy=0;" edge="1" parent="1" source="vYAjjvCld0Y-YH37jlVp-12" target="vYAjjvCld0Y-YH37jlVp-52">
          <mxGeometry relative="1" as="geometry">
            <mxPoint x="1275" y="1466.5" as="sourcePoint" />
          </mxGeometry>
        </mxCell>
        <mxCell id="vYAjjvCld0Y-YH37jlVp-54" style="edgeStyle=orthogonalEdgeStyle;rounded=0;orthogonalLoop=1;jettySize=auto;html=1;exitX=1;exitY=0.5;exitDx=0;exitDy=0;entryX=0.5;entryY=1;entryDx=0;entryDy=0;entryPerimeter=0;fontSize=16;" edge="1" parent="1" source="vYAjjvCld0Y-YH37jlVp-13" target="vYAjjvCld0Y-YH37jlVp-52">
          <mxGeometry relative="1" as="geometry">
            <mxPoint x="1275" y="1576.5" as="sourcePoint" />
          </mxGeometry>
        </mxCell>
        <mxCell id="vYAjjvCld0Y-YH37jlVp-55" value="$$\mathbb{A}_4$$" style="whiteSpace=wrap;html=1;aspect=fixed;fontSize=16;fillColor=#bac8d3;strokeColor=#23445d;" vertex="1" parent="1">
          <mxGeometry x="1390" y="2023" width="45" height="45" as="geometry" />
        </mxCell>
        <mxCell id="vYAjjvCld0Y-YH37jlVp-56" style="edgeStyle=orthogonalEdgeStyle;rounded=0;orthogonalLoop=1;jettySize=auto;html=1;entryX=0;entryY=0.5;entryDx=0;entryDy=0;fontSize=16;" edge="1" parent="1" target="vYAjjvCld0Y-YH37jlVp-55">
          <mxGeometry relative="1" as="geometry">
            <mxPoint x="1350" y="2045.5" as="sourcePoint" />
          </mxGeometry>
        </mxCell>
        <mxCell id="vYAjjvCld0Y-YH37jlVp-57" value="$$\mathbb{M}_1$$" style="whiteSpace=wrap;html=1;aspect=fixed;fontSize=16;fillColor=#b0e3e6;strokeColor=#0e8088;" vertex="1" parent="1">
          <mxGeometry x="1575" y="1658" width="45" height="45" as="geometry" />
        </mxCell>
        <mxCell id="vYAjjvCld0Y-YH37jlVp-58" style="edgeStyle=orthogonalEdgeStyle;rounded=0;orthogonalLoop=1;jettySize=auto;html=1;entryX=0;entryY=0.5;entryDx=0;entryDy=0;fontSize=16;" edge="1" parent="1" target="vYAjjvCld0Y-YH37jlVp-59">
          <mxGeometry relative="1" as="geometry">
            <mxPoint x="1530" y="1805.5" as="sourcePoint" />
          </mxGeometry>
        </mxCell>
        <mxCell id="vYAjjvCld0Y-YH37jlVp-59" value="$$\mathbb{M}_2$$" style="whiteSpace=wrap;html=1;aspect=fixed;fontSize=16;fillColor=#b0e3e6;strokeColor=#0e8088;" vertex="1" parent="1">
          <mxGeometry x="1575" y="1783" width="45" height="45" as="geometry" />
        </mxCell>
        <mxCell id="vYAjjvCld0Y-YH37jlVp-60" style="edgeStyle=orthogonalEdgeStyle;rounded=0;orthogonalLoop=1;jettySize=auto;html=1;entryX=0;entryY=0.5;entryDx=0;entryDy=0;fontSize=16;" edge="1" parent="1" target="vYAjjvCld0Y-YH37jlVp-61">
          <mxGeometry relative="1" as="geometry">
            <mxPoint x="1530" y="1910.5" as="sourcePoint" />
          </mxGeometry>
        </mxCell>
        <mxCell id="vYAjjvCld0Y-YH37jlVp-61" value="$$\mathbb{M}_3$$" style="whiteSpace=wrap;html=1;aspect=fixed;fontSize=16;fillColor=#b0e3e6;strokeColor=#0e8088;" vertex="1" parent="1">
          <mxGeometry x="1575" y="1888" width="45" height="45" as="geometry" />
        </mxCell>
        <mxCell id="vYAjjvCld0Y-YH37jlVp-62" value="&lt;font style=&quot;font-size: 16px;&quot;&gt;$$\mathbb{A}_2$$&lt;/font&gt;" style="whiteSpace=wrap;html=1;aspect=fixed;fontSize=16;fillColor=#bac8d3;strokeColor=#23445d;" vertex="1" parent="1">
          <mxGeometry x="1736" y="1608" width="45" height="45" as="geometry" />
        </mxCell>
        <mxCell id="vYAjjvCld0Y-YH37jlVp-63" style="edgeStyle=orthogonalEdgeStyle;rounded=0;orthogonalLoop=1;jettySize=auto;html=1;entryX=0;entryY=0.5;entryDx=0;entryDy=0;fontSize=16;" edge="1" parent="1" source="vYAjjvCld0Y-YH37jlVp-64" target="vYAjjvCld0Y-YH37jlVp-62">
          <mxGeometry relative="1" as="geometry" />
        </mxCell>
        <mxCell id="vYAjjvCld0Y-YH37jlVp-64" value="" style="verticalLabelPosition=bottom;verticalAlign=top;html=1;shape=mxgraph.flowchart.summing_function;fontSize=16;fillColor=#f5f5f5;fontColor=#333333;strokeColor=#666666;" vertex="1" parent="1">
          <mxGeometry x="1656" y="1610.5" width="40" height="40" as="geometry" />
        </mxCell>
        <mxCell id="vYAjjvCld0Y-YH37jlVp-65" style="edgeStyle=orthogonalEdgeStyle;rounded=0;orthogonalLoop=1;jettySize=auto;html=1;entryX=0.5;entryY=0;entryDx=0;entryDy=0;entryPerimeter=0;" edge="1" parent="1" source="vYAjjvCld0Y-YH37jlVp-14" target="vYAjjvCld0Y-YH37jlVp-64">
          <mxGeometry relative="1" as="geometry" />
        </mxCell>
        <mxCell id="vYAjjvCld0Y-YH37jlVp-66" style="edgeStyle=orthogonalEdgeStyle;rounded=0;orthogonalLoop=1;jettySize=auto;html=1;exitX=1;exitY=0.5;exitDx=0;exitDy=0;entryX=0.5;entryY=1;entryDx=0;entryDy=0;entryPerimeter=0;" edge="1" parent="1" source="vYAjjvCld0Y-YH37jlVp-57" target="vYAjjvCld0Y-YH37jlVp-64">
          <mxGeometry relative="1" as="geometry" />
        </mxCell>
        <mxCell id="vYAjjvCld0Y-YH37jlVp-67" value="&lt;font style=&quot;font-size: 16px;&quot;&gt;$$\mathbb{A}_3$$&lt;/font&gt;" style="whiteSpace=wrap;html=1;aspect=fixed;fontSize=16;fillColor=#bac8d3;strokeColor=#23445d;" vertex="1" parent="1">
          <mxGeometry x="1735.5" y="1840" width="45" height="45" as="geometry" />
        </mxCell>
        <mxCell id="vYAjjvCld0Y-YH37jlVp-68" style="edgeStyle=orthogonalEdgeStyle;rounded=0;orthogonalLoop=1;jettySize=auto;html=1;entryX=0;entryY=0.5;entryDx=0;entryDy=0;fontSize=16;" edge="1" parent="1" source="vYAjjvCld0Y-YH37jlVp-69" target="vYAjjvCld0Y-YH37jlVp-67">
          <mxGeometry relative="1" as="geometry" />
        </mxCell>
        <mxCell id="vYAjjvCld0Y-YH37jlVp-69" value="" style="verticalLabelPosition=bottom;verticalAlign=top;html=1;shape=mxgraph.flowchart.summing_function;fontSize=16;fillColor=#f5f5f5;fontColor=#333333;strokeColor=#666666;" vertex="1" parent="1">
          <mxGeometry x="1655.5" y="1842.5" width="40" height="40" as="geometry" />
        </mxCell>
        <mxCell id="vYAjjvCld0Y-YH37jlVp-70" style="edgeStyle=orthogonalEdgeStyle;rounded=0;orthogonalLoop=1;jettySize=auto;html=1;entryX=0.5;entryY=0;entryDx=0;entryDy=0;entryPerimeter=0;" edge="1" parent="1" target="vYAjjvCld0Y-YH37jlVp-69">
          <mxGeometry relative="1" as="geometry">
            <mxPoint x="1619.5" y="1810.5" as="sourcePoint" />
          </mxGeometry>
        </mxCell>
        <mxCell id="vYAjjvCld0Y-YH37jlVp-71" style="edgeStyle=orthogonalEdgeStyle;rounded=0;orthogonalLoop=1;jettySize=auto;html=1;exitX=1;exitY=0.5;exitDx=0;exitDy=0;entryX=0.5;entryY=1;entryDx=0;entryDy=0;entryPerimeter=0;" edge="1" parent="1" target="vYAjjvCld0Y-YH37jlVp-69">
          <mxGeometry relative="1" as="geometry">
            <mxPoint x="1619.5" y="1912.5" as="sourcePoint" />
          </mxGeometry>
        </mxCell>
        <mxCell id="vYAjjvCld0Y-YH37jlVp-72" value="&lt;font style=&quot;font-size: 16px;&quot;&gt;注：&lt;/font&gt;" style="text;html=1;align=center;verticalAlign=middle;resizable=0;points=[];autosize=1;strokeColor=none;fillColor=none;" vertex="1" parent="1">
          <mxGeometry x="1233" y="1299" width="60" height="30" as="geometry" />
        </mxCell>
        <mxCell id="vYAjjvCld0Y-YH37jlVp-74" style="edgeStyle=orthogonalEdgeStyle;rounded=0;orthogonalLoop=1;jettySize=auto;html=1;entryX=0;entryY=0.5;entryDx=0;entryDy=0;" edge="1" parent="1" source="vYAjjvCld0Y-YH37jlVp-75" target="vYAjjvCld0Y-YH37jlVp-77">
          <mxGeometry relative="1" as="geometry" />
        </mxCell>
        <mxCell id="vYAjjvCld0Y-YH37jlVp-75" value="" style="verticalLabelPosition=bottom;verticalAlign=top;html=1;shape=mxgraph.flowchart.or;fontSize=16;fillColor=#999999;strokeColor=#000000;" vertex="1" parent="1">
          <mxGeometry x="1825" y="1465.5" width="40" height="40" as="geometry" />
        </mxCell>
        <mxCell id="vYAjjvCld0Y-YH37jlVp-77" value="&lt;font style=&quot;font-size: 16px;&quot;&gt;$$\mathbb{X}_1$$&lt;/font&gt;" style="whiteSpace=wrap;html=1;aspect=fixed;fontSize=16;fillColor=#dae8fc;strokeColor=#6c8ebf;" vertex="1" parent="1">
          <mxGeometry x="1910" y="1463" width="45" height="45" as="geometry" />
        </mxCell>
        <mxCell id="vYAjjvCld0Y-YH37jlVp-78" style="edgeStyle=orthogonalEdgeStyle;rounded=0;orthogonalLoop=1;jettySize=auto;html=1;entryX=0;entryY=0.5;entryDx=0;entryDy=0;" edge="1" parent="1" source="vYAjjvCld0Y-YH37jlVp-79" target="vYAjjvCld0Y-YH37jlVp-80">
          <mxGeometry relative="1" as="geometry" />
        </mxCell>
        <mxCell id="vYAjjvCld0Y-YH37jlVp-79" value="" style="verticalLabelPosition=bottom;verticalAlign=top;html=1;shape=mxgraph.flowchart.or;fontSize=16;fillColor=#999999;strokeColor=#000000;" vertex="1" parent="1">
          <mxGeometry x="1825" y="1610.5" width="40" height="40" as="geometry" />
        </mxCell>
        <mxCell id="vYAjjvCld0Y-YH37jlVp-80" value="&lt;font style=&quot;font-size: 16px;&quot;&gt;$$\mathbb{X}_2$$&lt;/font&gt;" style="whiteSpace=wrap;html=1;aspect=fixed;fontSize=16;fillColor=#dae8fc;strokeColor=#6c8ebf;" vertex="1" parent="1">
          <mxGeometry x="1910" y="1608" width="45" height="45" as="geometry" />
        </mxCell>
        <mxCell id="vYAjjvCld0Y-YH37jlVp-81" style="edgeStyle=orthogonalEdgeStyle;rounded=0;orthogonalLoop=1;jettySize=auto;html=1;entryX=0;entryY=0.5;entryDx=0;entryDy=0;entryPerimeter=0;" edge="1" parent="1" target="vYAjjvCld0Y-YH37jlVp-79">
          <mxGeometry relative="1" as="geometry">
            <mxPoint x="1780.5" y="1630.5000000000002" as="sourcePoint" />
          </mxGeometry>
        </mxCell>
        <mxCell id="vYAjjvCld0Y-YH37jlVp-82" style="edgeStyle=orthogonalEdgeStyle;rounded=0;orthogonalLoop=1;jettySize=auto;html=1;entryX=0;entryY=0.5;entryDx=0;entryDy=0;" edge="1" parent="1" source="vYAjjvCld0Y-YH37jlVp-83" target="vYAjjvCld0Y-YH37jlVp-84">
          <mxGeometry relative="1" as="geometry" />
        </mxCell>
        <mxCell id="vYAjjvCld0Y-YH37jlVp-83" value="" style="verticalLabelPosition=bottom;verticalAlign=top;html=1;shape=mxgraph.flowchart.or;fontSize=16;fillColor=#999999;strokeColor=#000000;" vertex="1" parent="1">
          <mxGeometry x="1825" y="1842.5" width="40" height="40" as="geometry" />
        </mxCell>
        <mxCell id="vYAjjvCld0Y-YH37jlVp-84" value="&lt;font style=&quot;font-size: 16px;&quot;&gt;$$\mathbb{X}_3$$&lt;/font&gt;" style="whiteSpace=wrap;html=1;aspect=fixed;fontSize=16;fillColor=#dae8fc;strokeColor=#6c8ebf;" vertex="1" parent="1">
          <mxGeometry x="1910" y="1840" width="45" height="45" as="geometry" />
        </mxCell>
        <mxCell id="vYAjjvCld0Y-YH37jlVp-85" style="edgeStyle=orthogonalEdgeStyle;rounded=0;orthogonalLoop=1;jettySize=auto;html=1;entryX=0;entryY=0.5;entryDx=0;entryDy=0;entryPerimeter=0;" edge="1" parent="1" source="vYAjjvCld0Y-YH37jlVp-67" target="vYAjjvCld0Y-YH37jlVp-83">
          <mxGeometry relative="1" as="geometry" />
        </mxCell>
        <mxCell id="vYAjjvCld0Y-YH37jlVp-86" style="edgeStyle=orthogonalEdgeStyle;rounded=0;orthogonalLoop=1;jettySize=auto;html=1;entryX=0;entryY=0.5;entryDx=0;entryDy=0;" edge="1" parent="1" source="vYAjjvCld0Y-YH37jlVp-87" target="vYAjjvCld0Y-YH37jlVp-88">
          <mxGeometry relative="1" as="geometry" />
        </mxCell>
        <mxCell id="vYAjjvCld0Y-YH37jlVp-87" value="" style="verticalLabelPosition=bottom;verticalAlign=top;html=1;shape=mxgraph.flowchart.or;fontSize=16;fillColor=#999999;strokeColor=#000000;" vertex="1" parent="1">
          <mxGeometry x="1822.5" y="1968" width="40" height="40" as="geometry" />
        </mxCell>
        <mxCell id="vYAjjvCld0Y-YH37jlVp-88" value="&lt;font style=&quot;font-size: 16px;&quot;&gt;$$\mathbb{X}_4$$&lt;/font&gt;" style="whiteSpace=wrap;html=1;aspect=fixed;fontSize=16;fillColor=#dae8fc;strokeColor=#6c8ebf;" vertex="1" parent="1">
          <mxGeometry x="1910" y="1965.5" width="45" height="45" as="geometry" />
        </mxCell>
        <mxCell id="vYAjjvCld0Y-YH37jlVp-90" style="edgeStyle=orthogonalEdgeStyle;rounded=0;orthogonalLoop=1;jettySize=auto;html=1;entryX=0;entryY=0.5;entryDx=0;entryDy=0;entryPerimeter=0;" edge="1" parent="1" source="vYAjjvCld0Y-YH37jlVp-18" target="vYAjjvCld0Y-YH37jlVp-87">
          <mxGeometry relative="1" as="geometry" />
        </mxCell>
        <mxCell id="vYAjjvCld0Y-YH37jlVp-92" style="edgeStyle=orthogonalEdgeStyle;rounded=0;orthogonalLoop=1;jettySize=auto;html=1;entryX=0;entryY=0.5;entryDx=0;entryDy=0;" edge="1" parent="1" source="vYAjjvCld0Y-YH37jlVp-93" target="vYAjjvCld0Y-YH37jlVp-94">
          <mxGeometry relative="1" as="geometry" />
        </mxCell>
        <mxCell id="vYAjjvCld0Y-YH37jlVp-93" value="" style="verticalLabelPosition=bottom;verticalAlign=top;html=1;shape=mxgraph.flowchart.or;fontSize=16;fillColor=#999999;strokeColor=#000000;" vertex="1" parent="1">
          <mxGeometry x="1822.5" y="2149" width="40" height="40" as="geometry" />
        </mxCell>
        <mxCell id="vYAjjvCld0Y-YH37jlVp-94" value="&lt;font style=&quot;font-size: 16px;&quot;&gt;$$\mathbb{X}_5$$&lt;/font&gt;" style="whiteSpace=wrap;html=1;aspect=fixed;fontSize=16;fillColor=#dae8fc;strokeColor=#6c8ebf;" vertex="1" parent="1">
          <mxGeometry x="1910" y="2146.5" width="45" height="45" as="geometry" />
        </mxCell>
        <mxCell id="vYAjjvCld0Y-YH37jlVp-95" style="edgeStyle=orthogonalEdgeStyle;rounded=0;orthogonalLoop=1;jettySize=auto;html=1;entryX=0;entryY=0.5;entryDx=0;entryDy=0;entryPerimeter=0;" edge="1" parent="1" source="vYAjjvCld0Y-YH37jlVp-19" target="vYAjjvCld0Y-YH37jlVp-93">
          <mxGeometry relative="1" as="geometry" />
        </mxCell>
        <mxCell id="vYAjjvCld0Y-YH37jlVp-97" value="&lt;font style=&quot;font-size: 16px;&quot;&gt;$$\mathbb{T}_1$$&lt;/font&gt;" style="whiteSpace=wrap;html=1;aspect=fixed;fontSize=16;fillColor=#bac8d3;strokeColor=#23445d;" vertex="1" parent="1">
          <mxGeometry x="2057" y="1377" width="45" height="45" as="geometry" />
        </mxCell>
        <mxCell id="vYAjjvCld0Y-YH37jlVp-141" style="edgeStyle=orthogonalEdgeStyle;rounded=0;orthogonalLoop=1;jettySize=auto;html=1;entryX=0;entryY=0.5;entryDx=0;entryDy=0;" edge="1" parent="1" source="vYAjjvCld0Y-YH37jlVp-99" target="vYAjjvCld0Y-YH37jlVp-97">
          <mxGeometry relative="1" as="geometry" />
        </mxCell>
        <mxCell id="vYAjjvCld0Y-YH37jlVp-99" value="" style="verticalLabelPosition=bottom;verticalAlign=top;html=1;shape=mxgraph.flowchart.summing_function;fontSize=16;fillColor=#f5f5f5;fontColor=#333333;strokeColor=#666666;" vertex="1" parent="1">
          <mxGeometry x="1977" y="1379.5" width="40" height="40" as="geometry" />
        </mxCell>
        <mxCell id="vYAjjvCld0Y-YH37jlVp-101" value="&lt;font style=&quot;font-size: 16px;&quot;&gt;$$\mathbb{T}_2$$&lt;/font&gt;" style="whiteSpace=wrap;html=1;aspect=fixed;fontSize=16;fillColor=#bac8d3;strokeColor=#23445d;" vertex="1" parent="1">
          <mxGeometry x="2055" y="1722.5" width="45" height="45" as="geometry" />
        </mxCell>
        <mxCell id="vYAjjvCld0Y-YH37jlVp-142" style="edgeStyle=orthogonalEdgeStyle;rounded=0;orthogonalLoop=1;jettySize=auto;html=1;entryX=0;entryY=0.5;entryDx=0;entryDy=0;" edge="1" parent="1" source="vYAjjvCld0Y-YH37jlVp-103" target="vYAjjvCld0Y-YH37jlVp-101">
          <mxGeometry relative="1" as="geometry" />
        </mxCell>
        <mxCell id="vYAjjvCld0Y-YH37jlVp-103" value="" style="verticalLabelPosition=bottom;verticalAlign=top;html=1;shape=mxgraph.flowchart.summing_function;fontSize=16;fillColor=#f5f5f5;fontColor=#333333;strokeColor=#666666;" vertex="1" parent="1">
          <mxGeometry x="1977" y="1725" width="40" height="40" as="geometry" />
        </mxCell>
        <mxCell id="vYAjjvCld0Y-YH37jlVp-104" style="edgeStyle=orthogonalEdgeStyle;rounded=0;orthogonalLoop=1;jettySize=auto;html=1;entryX=0.5;entryY=1;entryDx=0;entryDy=0;entryPerimeter=0;" edge="1" parent="1" source="vYAjjvCld0Y-YH37jlVp-77" target="vYAjjvCld0Y-YH37jlVp-99">
          <mxGeometry relative="1" as="geometry" />
        </mxCell>
        <mxCell id="vYAjjvCld0Y-YH37jlVp-105" style="edgeStyle=orthogonalEdgeStyle;rounded=0;orthogonalLoop=1;jettySize=auto;html=1;entryX=0.5;entryY=0;entryDx=0;entryDy=0;entryPerimeter=0;" edge="1" parent="1" source="vYAjjvCld0Y-YH37jlVp-80" target="vYAjjvCld0Y-YH37jlVp-103">
          <mxGeometry relative="1" as="geometry" />
        </mxCell>
        <mxCell id="vYAjjvCld0Y-YH37jlVp-106" value="&lt;font style=&quot;font-size: 16px;&quot;&gt;$$\mathbb{T}_3$$&lt;/font&gt;" style="whiteSpace=wrap;html=1;aspect=fixed;fontSize=16;fillColor=#bac8d3;strokeColor=#23445d;" vertex="1" parent="1">
          <mxGeometry x="2057" y="2053.5" width="45" height="45" as="geometry" />
        </mxCell>
        <mxCell id="vYAjjvCld0Y-YH37jlVp-109" style="edgeStyle=orthogonalEdgeStyle;rounded=0;orthogonalLoop=1;jettySize=auto;html=1;entryX=0.5;entryY=1;entryDx=0;entryDy=0;entryPerimeter=0;" edge="1" parent="1" source="vYAjjvCld0Y-YH37jlVp-84" target="vYAjjvCld0Y-YH37jlVp-103">
          <mxGeometry relative="1" as="geometry" />
        </mxCell>
        <mxCell id="vYAjjvCld0Y-YH37jlVp-110" style="edgeStyle=orthogonalEdgeStyle;rounded=0;orthogonalLoop=1;jettySize=auto;html=1;" edge="1" parent="1" source="vYAjjvCld0Y-YH37jlVp-113">
          <mxGeometry relative="1" as="geometry">
            <mxPoint x="1997" y="2076" as="targetPoint" />
          </mxGeometry>
        </mxCell>
        <mxCell id="vYAjjvCld0Y-YH37jlVp-114" style="edgeStyle=orthogonalEdgeStyle;rounded=0;orthogonalLoop=1;jettySize=auto;html=1;entryX=0.5;entryY=1;entryDx=0;entryDy=0;entryPerimeter=0;" edge="1" parent="1" source="vYAjjvCld0Y-YH37jlVp-94" target="vYAjjvCld0Y-YH37jlVp-113">
          <mxGeometry relative="1" as="geometry" />
        </mxCell>
        <mxCell id="vYAjjvCld0Y-YH37jlVp-115" value="&lt;font style=&quot;font-size: 16px;&quot;&gt;$$\mathbb{T}_4$$&lt;/font&gt;" style="whiteSpace=wrap;html=1;aspect=fixed;fontSize=16;fillColor=#bac8d3;strokeColor=#23445d;" vertex="1" parent="1">
          <mxGeometry x="2225" y="1554" width="45" height="45" as="geometry" />
        </mxCell>
        <mxCell id="vYAjjvCld0Y-YH37jlVp-116" style="edgeStyle=orthogonalEdgeStyle;rounded=0;orthogonalLoop=1;jettySize=auto;html=1;entryX=0;entryY=0.5;entryDx=0;entryDy=0;" edge="1" parent="1" source="vYAjjvCld0Y-YH37jlVp-117" target="vYAjjvCld0Y-YH37jlVp-115">
          <mxGeometry relative="1" as="geometry" />
        </mxCell>
        <mxCell id="vYAjjvCld0Y-YH37jlVp-117" value="" style="verticalLabelPosition=bottom;verticalAlign=top;html=1;shape=mxgraph.flowchart.summing_function;fontSize=16;fillColor=#f5f5f5;fontColor=#333333;strokeColor=#666666;" vertex="1" parent="1">
          <mxGeometry x="2145" y="1556.5" width="40" height="40" as="geometry" />
        </mxCell>
        <mxCell id="vYAjjvCld0Y-YH37jlVp-118" style="edgeStyle=orthogonalEdgeStyle;rounded=0;orthogonalLoop=1;jettySize=auto;html=1;entryX=0.5;entryY=0;entryDx=0;entryDy=0;entryPerimeter=0;" edge="1" parent="1" source="vYAjjvCld0Y-YH37jlVp-97" target="vYAjjvCld0Y-YH37jlVp-117">
          <mxGeometry relative="1" as="geometry" />
        </mxCell>
        <mxCell id="vYAjjvCld0Y-YH37jlVp-119" style="edgeStyle=orthogonalEdgeStyle;rounded=0;orthogonalLoop=1;jettySize=auto;html=1;entryX=0.5;entryY=1;entryDx=0;entryDy=0;entryPerimeter=0;" edge="1" parent="1" source="vYAjjvCld0Y-YH37jlVp-101" target="vYAjjvCld0Y-YH37jlVp-117">
          <mxGeometry relative="1" as="geometry" />
        </mxCell>
        <mxCell id="vYAjjvCld0Y-YH37jlVp-120" value="&lt;font style=&quot;font-size: 16px;&quot;&gt;$$\mathbb{T}_6$$&lt;/font&gt;" style="whiteSpace=wrap;html=1;aspect=fixed;fontSize=16;fillColor=#bac8d3;strokeColor=#23445d;" vertex="1" parent="1">
          <mxGeometry x="2225" y="2140.5" width="45" height="45" as="geometry" />
        </mxCell>
        <mxCell id="vYAjjvCld0Y-YH37jlVp-121" style="edgeStyle=orthogonalEdgeStyle;rounded=0;orthogonalLoop=1;jettySize=auto;html=1;entryX=0;entryY=0.5;entryDx=0;entryDy=0;" edge="1" parent="1" source="vYAjjvCld0Y-YH37jlVp-122" target="vYAjjvCld0Y-YH37jlVp-120">
          <mxGeometry relative="1" as="geometry" />
        </mxCell>
        <mxCell id="vYAjjvCld0Y-YH37jlVp-122" value="" style="verticalLabelPosition=bottom;verticalAlign=top;html=1;shape=mxgraph.flowchart.summing_function;fontSize=16;fillColor=#f5f5f5;fontColor=#333333;strokeColor=#666666;" vertex="1" parent="1">
          <mxGeometry x="2147" y="2143" width="40" height="40" as="geometry" />
        </mxCell>
        <mxCell id="vYAjjvCld0Y-YH37jlVp-125" value="&lt;font style=&quot;font-size: 16px;&quot;&gt;$$x$$&lt;/font&gt;" style="whiteSpace=wrap;html=1;aspect=fixed;fontSize=16;fillColor=#B0E3E6;strokeColor=#BABABA;" vertex="1" parent="1">
          <mxGeometry x="2385" y="1819.5" width="45" height="45" as="geometry" />
        </mxCell>
        <mxCell id="vYAjjvCld0Y-YH37jlVp-126" style="edgeStyle=orthogonalEdgeStyle;rounded=0;orthogonalLoop=1;jettySize=auto;html=1;entryX=0;entryY=0.5;entryDx=0;entryDy=0;" edge="1" parent="1" source="vYAjjvCld0Y-YH37jlVp-127" target="vYAjjvCld0Y-YH37jlVp-125">
          <mxGeometry relative="1" as="geometry" />
        </mxCell>
        <mxCell id="vYAjjvCld0Y-YH37jlVp-127" value="" style="verticalLabelPosition=bottom;verticalAlign=top;html=1;shape=mxgraph.flowchart.summing_function;fontSize=16;fillColor=#f5f5f5;fontColor=#333333;strokeColor=#666666;" vertex="1" parent="1">
          <mxGeometry x="2292" y="1822" width="40" height="40" as="geometry" />
        </mxCell>
        <mxCell id="vYAjjvCld0Y-YH37jlVp-129" style="edgeStyle=orthogonalEdgeStyle;rounded=0;orthogonalLoop=1;jettySize=auto;html=1;entryX=0.5;entryY=0;entryDx=0;entryDy=0;entryPerimeter=0;" edge="1" parent="1" source="vYAjjvCld0Y-YH37jlVp-115" target="vYAjjvCld0Y-YH37jlVp-127">
          <mxGeometry relative="1" as="geometry" />
        </mxCell>
        <mxCell id="vYAjjvCld0Y-YH37jlVp-130" style="edgeStyle=orthogonalEdgeStyle;rounded=0;orthogonalLoop=1;jettySize=auto;html=1;entryX=0;entryY=0.5;entryDx=0;entryDy=0;entryPerimeter=0;" edge="1" parent="1" source="vYAjjvCld0Y-YH37jlVp-23" target="vYAjjvCld0Y-YH37jlVp-75">
          <mxGeometry relative="1" as="geometry" />
        </mxCell>
        <mxCell id="vYAjjvCld0Y-YH37jlVp-132" style="edgeStyle=orthogonalEdgeStyle;rounded=0;orthogonalLoop=1;jettySize=auto;html=1;entryX=0.5;entryY=0;entryDx=0;entryDy=0;entryPerimeter=0;" edge="1" parent="1" source="vYAjjvCld0Y-YH37jlVp-28" target="vYAjjvCld0Y-YH37jlVp-75">
          <mxGeometry relative="1" as="geometry" />
        </mxCell>
        <mxCell id="vYAjjvCld0Y-YH37jlVp-133" style="edgeStyle=orthogonalEdgeStyle;rounded=0;orthogonalLoop=1;jettySize=auto;html=1;entryX=0.5;entryY=0;entryDx=0;entryDy=0;entryPerimeter=0;" edge="1" parent="1" source="vYAjjvCld0Y-YH37jlVp-29" target="vYAjjvCld0Y-YH37jlVp-79">
          <mxGeometry relative="1" as="geometry" />
        </mxCell>
        <mxCell id="vYAjjvCld0Y-YH37jlVp-135" style="edgeStyle=orthogonalEdgeStyle;rounded=0;orthogonalLoop=1;jettySize=auto;html=1;entryX=0.5;entryY=0;entryDx=0;entryDy=0;entryPerimeter=0;" edge="1" parent="1" source="vYAjjvCld0Y-YH37jlVp-31" target="vYAjjvCld0Y-YH37jlVp-83">
          <mxGeometry relative="1" as="geometry" />
        </mxCell>
        <mxCell id="vYAjjvCld0Y-YH37jlVp-139" style="edgeStyle=orthogonalEdgeStyle;rounded=0;orthogonalLoop=1;jettySize=auto;html=1;exitX=0.5;exitY=1;exitDx=0;exitDy=0;entryX=0.5;entryY=0;entryDx=0;entryDy=0;entryPerimeter=0;" edge="1" parent="1" source="vYAjjvCld0Y-YH37jlVp-32" target="vYAjjvCld0Y-YH37jlVp-87">
          <mxGeometry relative="1" as="geometry" />
        </mxCell>
        <mxCell id="vYAjjvCld0Y-YH37jlVp-140" style="edgeStyle=orthogonalEdgeStyle;rounded=0;orthogonalLoop=1;jettySize=auto;html=1;entryX=0.5;entryY=0;entryDx=0;entryDy=0;entryPerimeter=0;" edge="1" parent="1" source="vYAjjvCld0Y-YH37jlVp-33" target="vYAjjvCld0Y-YH37jlVp-93">
          <mxGeometry relative="1" as="geometry" />
        </mxCell>
        <mxCell id="vYAjjvCld0Y-YH37jlVp-143" value="" style="edgeStyle=orthogonalEdgeStyle;rounded=0;orthogonalLoop=1;jettySize=auto;html=1;" edge="1" parent="1" source="vYAjjvCld0Y-YH37jlVp-88" target="vYAjjvCld0Y-YH37jlVp-113">
          <mxGeometry relative="1" as="geometry">
            <mxPoint x="1955" y="1988" as="sourcePoint" />
            <mxPoint x="1997" y="2076" as="targetPoint" />
          </mxGeometry>
        </mxCell>
        <mxCell id="vYAjjvCld0Y-YH37jlVp-144" style="edgeStyle=orthogonalEdgeStyle;rounded=0;orthogonalLoop=1;jettySize=auto;html=1;entryX=0;entryY=0.5;entryDx=0;entryDy=0;" edge="1" parent="1" source="vYAjjvCld0Y-YH37jlVp-113" target="vYAjjvCld0Y-YH37jlVp-106">
          <mxGeometry relative="1" as="geometry" />
        </mxCell>
        <mxCell id="vYAjjvCld0Y-YH37jlVp-113" value="" style="verticalLabelPosition=bottom;verticalAlign=top;html=1;shape=mxgraph.flowchart.summing_function;fontSize=16;fillColor=#f5f5f5;fontColor=#333333;strokeColor=#666666;" vertex="1" parent="1">
          <mxGeometry x="1977" y="2056" width="40" height="40" as="geometry" />
        </mxCell>
        <mxCell id="vYAjjvCld0Y-YH37jlVp-145" style="edgeStyle=orthogonalEdgeStyle;rounded=0;orthogonalLoop=1;jettySize=auto;html=1;entryX=0.5;entryY=0;entryDx=0;entryDy=0;entryPerimeter=0;" edge="1" parent="1" source="vYAjjvCld0Y-YH37jlVp-106" target="vYAjjvCld0Y-YH37jlVp-122">
          <mxGeometry relative="1" as="geometry" />
        </mxCell>
        <mxCell id="vYAjjvCld0Y-YH37jlVp-146" style="edgeStyle=orthogonalEdgeStyle;rounded=0;orthogonalLoop=1;jettySize=auto;html=1;entryX=0.5;entryY=1;entryDx=0;entryDy=0;entryPerimeter=0;" edge="1" parent="1" source="vYAjjvCld0Y-YH37jlVp-55" target="vYAjjvCld0Y-YH37jlVp-122">
          <mxGeometry relative="1" as="geometry">
            <Array as="points">
              <mxPoint x="1612" y="2046" />
              <mxPoint x="1612" y="2241" />
              <mxPoint x="2167" y="2241" />
            </Array>
          </mxGeometry>
        </mxCell>
        <mxCell id="vYAjjvCld0Y-YH37jlVp-147" style="edgeStyle=orthogonalEdgeStyle;rounded=0;orthogonalLoop=1;jettySize=auto;html=1;entryX=0.5;entryY=1;entryDx=0;entryDy=0;entryPerimeter=0;" edge="1" parent="1" source="vYAjjvCld0Y-YH37jlVp-120" target="vYAjjvCld0Y-YH37jlVp-127">
          <mxGeometry relative="1" as="geometry" />
        </mxCell>
      </root>
    </mxGraphModel>
  </diagram>
</mxfile>
